# Wavefront OBJ file made by Mineways version 13.00, http://mineways.com
# World: Estatua del Unicornio
# Terrain file name: C:\Users\marco\Downloads\mineways\mineways\terrainExt.png
# Culling scheme: Standard
# Tue Sep  8 14:32:43 2026

# Selection location min to max: -4, -60, 6 to 2, 319, 10
#   Non-empty selection location min to max: -4, -60, 6 to 2, -47, 10

# Set render type: Wavefront OBJ absolute indices
# Units for the model vertex data itself: meters

# 514 vertices, 784 faces (1568 triangles), 102 blocks, 50 billboards/bits
# block dimensions: X=7 by Y=15 (height) by Z=6 blocks
# Elevation shading: no
# Lighting: no
# Transparent water: no
# Map grid: no
# File type: Export individual textures to directory uni
# Texture output RGB: YES
# Texture output A: YES
# Texture output RGBA: YES
# Export separate types: no
# Export individual blocks: YES
#   Material per family: YES
#   Split by block type: YES
# Make groups objects: YES
# Custom material: YES
# Export lesser blocks: YES
# Fatten lesser blocks: no
# Simplify mesh: no
# Double all billboard faces: no
# Create composite overlay faces: no
# Center model: YES
# Use biomes: no
# Create block faces at the borders: YES
# Tree leaves solid: no
# Rotate model 0.000000 degrees
# Make Z the up direction instead of Y: no
# Scale model by making each block 1000 mm high
# Data operation options:
#   Fill air bubbles: no; Seal off entrances: no; Fill in isolated tunnels in base of model: no
#   Connect parts sharing an edge: no; Connect corner tips: no; Weld all shared edges: no
#   Delete floating objects: trees and parts smaller than 16 blocks: no
#   Hollow out bottom of model, making the walls 1000 mm thick: no; Superhollow: no
# Melt snow blocks: no
#   Debug: show separate parts as colors: no
#   Debug: show weld blocks in bright colors: no

# Full world path: C:\Users\marco\AppData\Roaming\.minecraft\.minecraft-26.2\saves\Estatua del Unicornio
# Full terrainExt.png path: C:\Users\marco\Downloads\mineways\mineways\terrainExt.png
# Full current path: C:\Users\marco\Downloads\mineways\mineways

# COMMON_MC_OBJ_START
# version: 1
# exporter: mineways
# world_name: Estatua del Unicornio
# world_path: C:\Users\marco\AppData\Roaming\.minecraft\.minecraft-26.2\saves\Estatua del Unicornio
# export_bounds_min: (-4, -60, 6)
# export_bounds_max: (2, 319, 10)
# export_offset: (1.000000, 60.000000, -8.000000)
# block_scale: 1
# block_origin_offset: (0.000000, 0.000000, 0.000000)
# z_up: false
# texture_type: INDIVIDUAL_TILES
# has_split_blocks: true
# COMMON_MC_OBJ_END

mtllib Estatua_del_Unicornio.mtl
vn -1 0 0
vn 0 -1 0
vn 0 0 -1
vn 1 0 0
vn 0 1 0
vn 0 0 1
vn -0.707107 0 -0.707107
vn -0.707107 0 0.707107
vn 0.707107 0 -0.707107
vn 0.707107 0 0.707107
vn -0.707107 -0.707107 0
vn 0 -0.707107 -0.707107
vn 0.707107 -0.707107 0
vn 0 -0.707107 0.707107
vn -0.707107 0.707107 0
vn 0 0.707107 -0.707107
vn 0.707107 0.707107 0
vn 0 0.707107 0.707107
vn -0.92388 0 -0.382683
vn -0.92388 0 0.382683
vn 0.92388 0 -0.382683
vn 0.92388 0 0.382683
vn -0.382683 0 -0.92388
vn -0.382683 0 0.92388
vn 0.382683 0 -0.92388
vn 0.382683 0 0.92388
vn -0.397273 0.9177 0
vn 0.397273 -0.9177 0
vn 0.397273 0.9177 0
vn -0.397273 -0.9177 0
vn 0 0.9177 -0.397273
vn 0 -0.9177 0.397273
vn 0 0.9177 0.397273
vn 0 -0.9177 -0.397273
vn -0.440932 0.897541 0
vn 0.440932 -0.897541 0
vn 0.440932 0.897541 0
vn -0.440932 -0.897541 0
vn 0 0.897541 -0.440932
vn 0 -0.897541 0.440932
vn 0 0.897541 0.440932
vn 0 -0.897541 -0.440932
vt 0.000000000 0.000000000
vt 0.312500000 0.000000000
vt 0.687500000 0.000000000
vt 1.000000000 0.000000000
vt 0.000000000 0.062500000
vt 0.125000000 0.062500000
vt 0.312500000 0.125000000
vt 0.687500000 0.125000000
vt 0.000000000 0.375000000
vt 0.125000000 0.375000000
vt 0.312500000 0.375000000
vt 0.687500000 0.375000000
vt 0.875000000 0.375000000
vt 1.000000000 0.375000000
vt 0.000000000 0.500000000
vt 0.500000000 0.500000000
vt 1.000000000 0.500000000
vt 0.125000000 0.562500000
vt 0.375000000 0.562500000
vt 0.000000000 0.625000000
vt 0.125000000 0.625000000
vt 0.312500000 0.625000000
vt 0.375000000 0.625000000
vt 0.687500000 0.625000000
vt 0.875000000 0.625000000
vt 1.000000000 0.625000000
vt 0.125000000 0.875000000
vt 0.250000000 0.875000000
vt 0.312500000 0.875000000
vt 0.375000000 0.875000000
vt 0.687500000 0.875000000
vt 0.000000000 1.000000000
vt 0.125000000 1.000000000
vt 0.250000000 1.000000000
vt 0.312500000 1.000000000
vt 0.500000000 1.000000000
vt 0.687500000 1.000000000
vt 1.000000000 1.000000000
v -1.6875 12.375 -0.125
v -1.6875 12.375 0
v -1.6875 12.625 -0.125
v -1.6875 12.625 0
v -1.3125 12.375 -0.125
v -1.3125 12.375 0
v -1.3125 12.625 -0.125
v -1.3125 12.625 0
v -1.6875 12.375 1
v -1.6875 12.375 1.125
v -1.6875 12.625 1
v -1.6875 12.625 1.125
v -1.3125 12.375 1
v -1.3125 12.375 1.125
v -1.3125 12.625 1
v -1.3125 12.625 1.125
v -2.5625 12.0625 0.4375
v -2.5625 12.0625 0.5625
v -2.5625 13 0.4375
v -2.5625 13 0.5625
v -2.4375 12.0625 0.4375
v -2.4375 12.0625 0.5625
v -2.4375 13 0.4375
v -2.4375 13 0.5625
v -2.625 12 0.375
v -2.625 12 0.625
v -2.625 12.0625 0.375
v -2.625 12.0625 0.625
v -2.375 12 0.375
v -2.375 12 0.625
v -2.375 12.0625 0.375
v -2.375 12.0625 0.625
v -1.5625 3.0625 -1.5625
v -1.5625 3.0625 -1.4375
v -1.5625 4 -1.5625
v -1.5625 4 -1.4375
v -1.4375 3.0625 -1.5625
v -1.4375 3.0625 -1.4375
v -1.4375 4 -1.5625
v -1.4375 4 -1.4375
v -1.625 3 -1.625
v -1.625 3 -1.375
v -1.625 3.0625 -1.625
v -1.625 3.0625 -1.375
v -1.375 3 -1.625
v -1.375 3 -1.375
v -1.375 3.0625 -1.625
v -1.375 3.0625 -1.375
v -2 2 -1
v -2 2 0
v -2 2.5 -1
v -2 2.5 0
v -1 2 -1
v -1 2 0
v -1 2.5 -1
v -1 2.5 0
v -2 2 0
v -2 2 1
v -2 2.5 0
v -2 2.5 1
v -1 2 0
v -1 2 1
v -1 2.5 0
v -1 2.5 1
v -2 13 0
v -2 13 1
v -2 13.5 0
v -2 13.5 1
v -1 13 0
v -1 13 1
v -1 13.5 0
v -1 13.5 1
v -2 13.5 0
v -2 13.5 0.5
v -2 14 0
v -2 14 0.5
v -1 13.5 0
v -1 13.5 0.5
v -1 14 0
v -1 14 0.5
v -2 2 1
v -2 2 2
v -2 2.5 1
v -2 2.5 2
v -1 2 1
v -1 2 2
v -1 2.5 1
v -1 2.5 2
v -1.5625 3.0625 2.4375
v -1.5625 3.0625 2.5625
v -1.5625 4 2.4375
v -1.5625 4 2.5625
v -1.4375 3.0625 2.4375
v -1.4375 3.0625 2.5625
v -1.4375 4 2.4375
v -1.4375 4 2.5625
v -1.625 3 2.375
v -1.625 3 2.625
v -1.625 3.0625 2.375
v -1.625 3.0625 2.625
v -1.375 3 2.375
v -1.375 3 2.625
v -1.375 3.0625 2.375
v -1.375 3.0625 2.625
v -1 2 -2
v -1 2 -1
v -1 2.5 -2
v -1 2.5 -1
v 0 2 -2
v 0 2 -1
v 0 2.5 -2
v 0 2.5 -1
v -1 12 0
v -1 12 1
v -1 12.5 0
v -1 12.5 1
v 0 12 0
v 0 12 1
v 0 12.5 0
v 0 12.5 1
v -1 12.5 0
v -1 12.5 0.5
v -1 13 0
v -1 13 0.5
v 0 12.5 0
v 0 12.5 0.5
v 0 13 0
v 0 13 0.5
v -1 2 2
v -1 2 3
v -1 2.5 2
v -1 2.5 3
v 0 2 2
v 0 2 3
v 0 2.5 2
v 0 2.5 3
v 0 2 -2
v 0 2 -1
v 0 2.5 -2
v 0 2.5 -1
v 1 2 -2
v 1 2 -1
v 1 2.5 -2
v 1 2.5 -1
v 0 10 0
v 0 10 1
v 0 10.5 0
v 0 10.5 1
v 1 10 0
v 1 10 1
v 1 10.5 0
v 1 10.5 1
v 0 10.5 0
v 0 10.5 0.5
v 0 11 0
v 0 11 0.5
v 1 10.5 0
v 1 10.5 0.5
v 1 11 0
v 1 11 0.5
v 0 2 2
v 0 2 3
v 0 2.5 2
v 0 2.5 3
v 1 2 2
v 1 2 3
v 1 2.5 2
v 1 2.5 3
v 1 2 -2
v 1 2 -1
v 1 2.5 -2
v 1 2.5 -1
v 2 2 -2
v 2 2 -1
v 2 2.5 -2
v 2 2.5 -1
v 1 2 2
v 1 2 3
v 1 2.5 2
v 1 2.5 3
v 2 2 2
v 2 2 3
v 2 2.5 2
v 2 2.5 3
v 2.4375 3.0625 -1.5625
v 2.4375 3.0625 -1.4375
v 2.4375 4 -1.5625
v 2.4375 4 -1.4375
v 2.5625 3.0625 -1.5625
v 2.5625 3.0625 -1.4375
v 2.5625 4 -1.5625
v 2.5625 4 -1.4375
v 2.375 3 -1.625
v 2.375 3 -1.375
v 2.375 3.0625 -1.625
v 2.375 3.0625 -1.375
v 2.625 3 -1.625
v 2.625 3 -1.375
v 2.625 3.0625 -1.625
v 2.625 3.0625 -1.375
v 2 2 -1
v 2 2 0
v 2 2.5 -1
v 2 2.5 0
v 3 2 -1
v 3 2 0
v 3 2.5 -1
v 3 2.5 0
v 2 2 0
v 2 2 1
v 2 2.5 0
v 2 2.5 1
v 3 2 0
v 3 2 1
v 3 2.5 0
v 3 2.5 1
v 2 2 1
v 2 2 2
v 2 2.5 1
v 2 2.5 2
v 3 2 1
v 3 2 2
v 3 2.5 1
v 3 2.5 2
v 2.4375 3.0625 2.4375
v 2.4375 3.0625 2.5625
v 2.4375 4 2.4375
v 2.4375 4 2.5625
v 2.5625 3.0625 2.4375
v 2.5625 3.0625 2.5625
v 2.5625 4 2.4375
v 2.5625 4 2.5625
v 2.375 3 2.375
v 2.375 3 2.625
v 2.375 3.0625 2.375
v 2.375 3.0625 2.625
v 2.625 3 2.375
v 2.625 3 2.625
v 2.625 3.0625 2.375
v 2.625 3.0625 2.625
v -3 8 -1
v -3 8 0
v -3 9 0
v -3 9 -1
v -2 8 0
v -2 8 -1
v -2 9 -1
v -2 9 0
v -3 10 0
v -3 10 -1
v -2 10 -1
v -2 10 0
v -3 11 0
v -3 11 1
v -3 12 1
v -3 12 0
v -2 11 1
v -2 11 0
v -2 12 0
v -2 12 1
v -3 8 1
v -3 8 2
v -3 9 2
v -3 9 1
v -2 8 2
v -2 8 1
v -2 9 1
v -2 9 2
v -3 10 2
v -3 10 1
v -2 10 1
v -2 10 2
v -2 0 -2
v -2 0 -1
v -2 1 -1
v -2 1 -2
v -1 0 -1
v -1 0 -2
v -1 1 -2
v -1 1 -1
v -2 2 -1
v -2 2 -2
v -1 2 -2
v -1 2 -1
v -2 3 -1
v -2 3 -2
v -1 3 -2
v -1 3 -1
v -2 0 0
v -2 1 0
v -1 0 0
v -1 1 0
v -2 2 0
v -1 2 0
v -1 9 0
v -1 9 -1
v -1 10 -1
v -1 10 0
v -2 11 -1
v -1 11 -1
v -1 11 0
v -1 8 1
v -1 8 0
v -1 9 1
v -1 10 1
v -1 11 1
v -1 12 0
v -1 12 1
v -2 13 1
v -2 13 0
v -1 13 0
v -1 13 1
v -2 0 1
v -2 0 2
v -2 1 2
v -2 1 1
v -1 0 2
v -1 0 1
v -1 1 1
v -1 1 2
v -2 2 2
v -2 2 1
v -1 2 1
v -1 2 2
v -1 9 2
v -1 10 2
v -2 11 2
v -1 11 2
v -2 0 3
v -2 1 3
v -1 0 3
v -1 1 3
v -2 2 3
v -1 2 3
v -2 3 3
v -2 3 2
v -1 3 2
v -1 3 3
v 0 0 -1
v 0 0 -2
v 0 1 -2
v 0 1 -1
v 0 2 -2
v 0 2 -1
v 0 0 0
v 0 1 0
v 0 2 0
v -1 3 0
v 0 3 -1
v 0 3 0
v 0 9 0
v 0 9 -1
v 0 10 -1
v 0 10 0
v 0 11 -1
v 0 11 0
v 0 0 1
v 0 1 1
v 0 2 1
v -1 3 1
v 0 3 1
v -1 6 0
v -1 6 1
v -1 7 1
v -1 7 0
v 0 6 1
v 0 6 0
v 0 7 0
v 0 7 1
v 0 8 0
v 0 8 1
v 0 9 1
v 0 10 1
v 0 11 1
v 0 12 0
v 0 12 1
v 0 0 2
v 0 1 2
v 0 2 2
v 0 3 2
v 0 9 2
v 0 10 2
v 0 11 2
v 0 0 3
v 0 1 3
v 0 2 3
v 1 0 0
v 1 0 -1
v 1 1 -1
v 1 1 0
v 1 2 -1
v 1 2 0
v 1 3 -1
v 1 3 0
v 0 5 -1
v 0 5 0
v 0 6 -1
v 1 5 0
v 1 5 -1
v 1 6 -1
v 1 6 0
v 0 7 -1
v 1 7 -1
v 1 7 0
v 1 0 1
v 1 1 1
v 1 2 1
v 1 3 1
v 0 5 1
v 1 5 1
v 1 6 1
v 1 7 1
v 1 8 0
v 1 8 1
v 1 9 0
v 1 9 1
v 1 10 0
v 1 10 1
v 1 0 2
v 1 1 2
v 1 2 2
v 1 3 2
v 0 5 2
v 0 6 2
v 1 5 2
v 1 6 2
v 0 7 2
v 1 7 2
v 1 0 -2
v 1 1 -2
v 2 0 -1
v 2 0 -2
v 2 1 -2
v 2 1 -1
v 1 2 -2
v 2 2 -2
v 2 2 -1
v 2 0 0
v 2 1 0
v 2 2 0
v 2 3 -1
v 2 3 0
v 1 4 0
v 1 4 -1
v 2 4 -1
v 2 4 0
v 2 5 -1
v 2 5 0
v 2 6 -1
v 2 6 0
v 2 7 -1
v 2 7 0
v 2 0 1
v 2 1 1
v 2 2 1
v 2 3 1
v 2 5 1
v 2 6 1
v 2 7 1
v 2 8 0
v 2 8 1
v 2 9 0
v 2 9 1
v 2 0 2
v 2 1 2
v 2 2 2
v 2 3 2
v 1 4 2
v 1 4 1
v 2 4 1
v 2 4 2
v 2 5 2
v 2 6 2
v 2 7 2
v 1 0 3
v 1 1 3
v 2 0 3
v 2 1 3
v 1 2 3
v 2 2 3
v 3 0 -1
v 3 0 -2
v 3 1 -2
v 3 1 -1
v 3 2 -2
v 3 2 -1
v 2 3 -2
v 3 3 -2
v 3 3 -1
v 3 0 0
v 3 1 0
v 3 2 0
v 3 7 1
v 3 7 0
v 3 8 0
v 3 8 1
v 3 0 2
v 3 0 1
v 3 1 1
v 3 1 2
v 3 2 1
v 3 2 2
v 3 0 3
v 3 1 3
v 3 2 3
v 2 3 3
v 3 3 2
v 3 3 3
v 3 6 0
v 3 6 1
v 4 6 1
v 4 6 0
v 4 7 0
v 4 7 1
usemtl polished_blackstone
# type: Polished Blackstone Button
o block_00001
g block_00001
f 3/25/1 1/13/1 2/14/1 4/26/1
f 2/7/2 1/2/2 5/3/2 6/8/2
f 7/22/3 5/11/3 1/12/3 3/24/3
f 7/21/4 8/20/4 6/9/4 5/10/4
f 7/8/5 3/7/5 4/2/5 8/3/5
f 8/24/6 4/22/6 2/11/6 6/12/6
# type: Polished Blackstone Button
o block_00002
g block_00002
f 11/20/1 9/9/1 10/10/1 12/21/1
f 10/35/2 9/29/2 13/31/2 14/37/2
f 15/22/3 13/11/3 9/12/3 11/24/3
f 15/26/4 16/25/4 14/13/4 13/14/4
f 15/37/5 11/35/5 12/29/5 16/31/5
f 16/24/6 12/22/6 10/11/6 14/12/6
usemtl end_rod
# type: End Rod
o block_00003
g block_00003
f 19/32/1 17/5/1 18/6/1 20/33/1
f 24/33/6 20/32/6 18/5/6 22/6/6
f 23/32/3 21/5/3 17/6/3 19/33/3
f 23/33/4 24/32/4 22/5/4 21/6/4
f 23/34/5 19/33/5 20/27/5 24/28/5
f 26/27/2 25/21/2 29/23/2 30/30/2
f 31/30/5 27/27/5 28/21/5 32/23/5
f 27/21/1 25/18/1 26/19/1 28/23/1
f 32/23/6 28/21/6 26/18/6 30/19/6
f 31/21/3 29/18/3 25/19/3 27/23/3
f 31/23/4 32/21/4 30/18/4 29/19/4
# type: End Rod
o block_00004
g block_00004
f 35/32/1 33/5/1 34/6/1 36/33/1
f 40/33/6 36/32/6 34/5/6 38/6/6
f 39/32/3 37/5/3 33/6/3 35/33/3
f 39/33/4 40/32/4 38/5/4 37/6/4
f 39/34/5 35/33/5 36/27/5 40/28/5
f 42/27/2 41/21/2 45/23/2 46/30/2
f 47/30/5 43/27/5 44/21/5 48/23/5
f 43/21/1 41/18/1 42/19/1 44/23/1
f 48/23/6 44/21/6 42/18/6 46/19/6
f 47/21/3 45/18/3 41/19/3 43/23/3
f 47/23/4 48/21/4 46/18/4 45/19/4
usemtl purpur_block
# type: Purpur Slab
o block_00005
g block_00005
f 51/15/1 49/1/1 50/4/1 52/17/1
f 50/32/2 49/1/2 53/4/2 54/38/2
f 55/15/3 53/1/3 49/4/3 51/17/3
f 55/17/4 56/15/4 54/1/4 53/4/4
f 55/38/5 51/32/5 52/1/5 56/4/5
f 56/17/6 52/15/6 50/1/6 54/4/6
# type: Purpur Slab
o block_00006
g block_00006
f 59/15/1 57/1/1 58/4/1 60/17/1
f 58/32/2 57/1/2 61/4/2 62/38/2
f 63/15/3 61/1/3 57/4/3 59/17/3
f 63/17/4 64/15/4 62/1/4 61/4/4
f 63/38/5 59/32/5 60/1/5 64/4/5
f 64/17/6 60/15/6 58/1/6 62/4/6
usemtl purpur_block
# type: Purpur Stairs
o block_00007
g block_00007
f 67/15/1 65/1/1 66/4/1 68/17/1
f 66/32/2 65/1/2 69/4/2 70/38/2
f 71/15/3 69/1/3 65/4/3 67/17/3
f 71/17/4 72/15/4 70/1/4 69/4/4
f 71/38/5 67/32/5 68/1/5 72/4/5
f 72/17/6 68/15/6 66/1/6 70/4/6
f 75/32/1 73/15/1 74/16/1 76/36/1
f 79/32/3 77/15/3 73/17/3 75/38/3
f 79/38/4 80/36/4 78/16/4 77/17/4
f 79/38/5 75/32/5 76/15/5 80/17/5
f 80/38/6 76/32/6 74/15/6 78/17/6
usemtl purpur_block
# type: Purpur Slab
o block_00008
g block_00008
f 83/15/1 81/1/1 82/4/1 84/17/1
f 82/32/2 81/1/2 85/4/2 86/38/2
f 87/15/3 85/1/3 81/4/3 83/17/3
f 87/17/4 88/15/4 86/1/4 85/4/4
f 87/38/5 83/32/5 84/1/5 88/4/5
f 88/17/6 84/15/6 82/1/6 86/4/6
usemtl end_rod
# type: End Rod
o block_00009
g block_00009
f 91/32/1 89/5/1 90/6/1 92/33/1
f 96/33/6 92/32/6 90/5/6 94/6/6
f 95/32/3 93/5/3 89/6/3 91/33/3
f 95/33/4 96/32/4 94/5/4 93/6/4
f 95/34/5 91/33/5 92/27/5 96/28/5
f 98/27/2 97/21/2 101/23/2 102/30/2
f 103/30/5 99/27/5 100/21/5 104/23/5
f 99/21/1 97/18/1 98/19/1 100/23/1
f 104/23/6 100/21/6 98/18/6 102/19/6
f 103/21/3 101/18/3 97/19/3 99/23/3
f 103/23/4 104/21/4 102/18/4 101/19/4
usemtl purpur_block
# type: Purpur Slab
o block_00010
g block_00010
f 107/15/1 105/1/1 106/4/1 108/17/1
f 106/32/2 105/1/2 109/4/2 110/38/2
f 111/15/3 109/1/3 105/4/3 107/17/3
f 111/17/4 112/15/4 110/1/4 109/4/4
f 111/38/5 107/32/5 108/1/5 112/4/5
f 112/17/6 108/15/6 106/1/6 110/4/6
usemtl purpur_block
# type: Purpur Stairs
o block_00011
g block_00011
f 115/15/1 113/1/1 114/4/1 116/17/1
f 114/32/2 113/1/2 117/4/2 118/38/2
f 119/15/3 117/1/3 113/4/3 115/17/3
f 119/17/4 120/15/4 118/1/4 117/4/4
f 119/38/5 115/32/5 116/1/5 120/4/5
f 120/17/6 116/15/6 114/1/6 118/4/6
f 123/32/1 121/15/1 122/16/1 124/36/1
f 127/32/3 125/15/3 121/17/3 123/38/3
f 127/38/4 128/36/4 126/16/4 125/17/4
f 127/38/5 123/32/5 124/15/5 128/17/5
f 128/38/6 124/32/6 122/15/6 126/17/6
usemtl purpur_block
# type: Purpur Slab
o block_00012
g block_00012
f 131/15/1 129/1/1 130/4/1 132/17/1
f 130/32/2 129/1/2 133/4/2 134/38/2
f 135/15/3 133/1/3 129/4/3 131/17/3
f 135/17/4 136/15/4 134/1/4 133/4/4
f 135/38/5 131/32/5 132/1/5 136/4/5
f 136/17/6 132/15/6 130/1/6 134/4/6
# type: Purpur Slab
o block_00013
g block_00013
f 139/15/1 137/1/1 138/4/1 140/17/1
f 138/32/2 137/1/2 141/4/2 142/38/2
f 143/15/3 141/1/3 137/4/3 139/17/3
f 143/17/4 144/15/4 142/1/4 141/4/4
f 143/38/5 139/32/5 140/1/5 144/4/5
f 144/17/6 140/15/6 138/1/6 142/4/6
usemtl purpur_block
# type: Purpur Stairs
o block_00014
g block_00014
f 147/15/1 145/1/1 146/4/1 148/17/1
f 146/32/2 145/1/2 149/4/2 150/38/2
f 151/15/3 149/1/3 145/4/3 147/17/3
f 151/17/4 152/15/4 150/1/4 149/4/4
f 151/38/5 147/32/5 148/1/5 152/4/5
f 152/17/6 148/15/6 146/1/6 150/4/6
f 155/32/1 153/15/1 154/16/1 156/36/1
f 159/32/3 157/15/3 153/17/3 155/38/3
f 159/38/4 160/36/4 158/16/4 157/17/4
f 159/38/5 155/32/5 156/15/5 160/17/5
f 160/38/6 156/32/6 154/15/6 158/17/6
usemtl purpur_block
# type: Purpur Slab
o block_00015
g block_00015
f 163/15/1 161/1/1 162/4/1 164/17/1
f 162/32/2 161/1/2 165/4/2 166/38/2
f 167/15/3 165/1/3 161/4/3 163/17/3
f 167/17/4 168/15/4 166/1/4 165/4/4
f 167/38/5 163/32/5 164/1/5 168/4/5
f 168/17/6 164/15/6 162/1/6 166/4/6
# type: Purpur Slab
o block_00016
g block_00016
f 171/15/1 169/1/1 170/4/1 172/17/1
f 170/32/2 169/1/2 173/4/2 174/38/2
f 175/15/3 173/1/3 169/4/3 171/17/3
f 175/17/4 176/15/4 174/1/4 173/4/4
f 175/38/5 171/32/5 172/1/5 176/4/5
f 176/17/6 172/15/6 170/1/6 174/4/6
# type: Purpur Slab
o block_00017
g block_00017
f 179/15/1 177/1/1 178/4/1 180/17/1
f 178/32/2 177/1/2 181/4/2 182/38/2
f 183/15/3 181/1/3 177/4/3 179/17/3
f 183/17/4 184/15/4 182/1/4 181/4/4
f 183/38/5 179/32/5 180/1/5 184/4/5
f 184/17/6 180/15/6 178/1/6 182/4/6
usemtl end_rod
# type: End Rod
o block_00018
g block_00018
f 187/32/1 185/5/1 186/6/1 188/33/1
f 192/33/6 188/32/6 186/5/6 190/6/6
f 191/32/3 189/5/3 185/6/3 187/33/3
f 191/33/4 192/32/4 190/5/4 189/6/4
f 191/34/5 187/33/5 188/27/5 192/28/5
f 194/27/2 193/21/2 197/23/2 198/30/2
f 199/30/5 195/27/5 196/21/5 200/23/5
f 195/21/1 193/18/1 194/19/1 196/23/1
f 200/23/6 196/21/6 194/18/6 198/19/6
f 199/21/3 197/18/3 193/19/3 195/23/3
f 199/23/4 200/21/4 198/18/4 197/19/4
usemtl purpur_block
# type: Purpur Slab
o block_00019
g block_00019
f 203/15/1 201/1/1 202/4/1 204/17/1
f 202/32/2 201/1/2 205/4/2 206/38/2
f 207/15/3 205/1/3 201/4/3 203/17/3
f 207/17/4 208/15/4 206/1/4 205/4/4
f 207/38/5 203/32/5 204/1/5 208/4/5
f 208/17/6 204/15/6 202/1/6 206/4/6
# type: Purpur Slab
o block_00020
g block_00020
f 211/15/1 209/1/1 210/4/1 212/17/1
f 210/32/2 209/1/2 213/4/2 214/38/2
f 215/15/3 213/1/3 209/4/3 211/17/3
f 215/17/4 216/15/4 214/1/4 213/4/4
f 215/38/5 211/32/5 212/1/5 216/4/5
f 216/17/6 212/15/6 210/1/6 214/4/6
# type: Purpur Slab
o block_00021
g block_00021
f 219/15/1 217/1/1 218/4/1 220/17/1
f 218/32/2 217/1/2 221/4/2 222/38/2
f 223/15/3 221/1/3 217/4/3 219/17/3
f 223/17/4 224/15/4 222/1/4 221/4/4
f 223/38/5 219/32/5 220/1/5 224/4/5
f 224/17/6 220/15/6 218/1/6 222/4/6
usemtl end_rod
# type: End Rod
o block_00022
g block_00022
f 227/32/1 225/5/1 226/6/1 228/33/1
f 232/33/6 228/32/6 226/5/6 230/6/6
f 231/32/3 229/5/3 225/6/3 227/33/3
f 231/33/4 232/32/4 230/5/4 229/6/4
f 231/34/5 227/33/5 228/27/5 232/28/5
f 234/27/2 233/21/2 237/23/2 238/30/2
f 239/30/5 235/27/5 236/21/5 240/23/5
f 235/21/1 233/18/1 234/19/1 236/23/1
f 240/23/6 236/21/6 234/18/6 238/19/6
f 239/21/3 237/18/3 233/19/3 235/23/3
f 239/23/4 240/21/4 238/18/4 237/19/4
usemtl purpur_block
# type: Purpur Block
o block_00023
g block_00023
f 242/4/1 243/38/1 244/32/1 241/1/1
f 242/32/2 241/1/2 246/4/2 245/38/2
f 241/4/3 244/38/3 247/32/3 246/1/3
f 245/1/4 246/4/4 247/38/4 248/32/4
f 243/1/5 248/4/5 247/38/5 244/32/5
f 242/1/6 245/4/6 248/38/6 243/32/6
usemtl quartz_pillar_top
# type: Block of Quartz
o block_00024
g block_00024
f 243/4/1 249/38/1 250/32/1 244/1/1
usemtl quartz_pillar
f 243/1/2 244/4/2 247/38/2 248/32/2
f 244/38/3 250/32/3 251/1/3 247/4/3
usemtl quartz_pillar_top
f 248/1/4 247/4/4 251/38/4 252/32/4
usemtl quartz_pillar
f 249/4/5 252/38/5 251/32/5 250/1/5
f 243/4/6 248/38/6 252/32/6 249/1/6
usemtl quartz_block_bottom
# type: Quartz
o block_00025
g block_00025
f 254/4/1 255/38/1 256/32/1 253/1/1
f 254/32/2 253/1/2 258/4/2 257/38/2
f 253/4/3 256/38/3 259/32/3 258/1/3
f 257/1/4 258/4/4 259/38/4 260/32/4
f 255/1/5 260/4/5 259/38/5 256/32/5
f 254/1/6 257/4/6 260/38/6 255/32/6
usemtl purpur_block
# type: Purpur Block
o block_00026
g block_00026
f 262/4/1 263/38/1 264/32/1 261/1/1
f 262/32/2 261/1/2 266/4/2 265/38/2
f 261/4/3 264/38/3 267/32/3 266/1/3
f 265/1/4 266/4/4 267/38/4 268/32/4
f 263/1/5 268/4/5 267/38/5 264/32/5
f 262/1/6 265/4/6 268/38/6 263/32/6
usemtl quartz_pillar_top
# type: Block of Quartz
o block_00027
g block_00027
f 263/4/1 269/38/1 270/32/1 264/1/1
usemtl quartz_pillar
f 263/1/2 264/4/2 267/38/2 268/32/2
f 264/38/3 270/32/3 271/1/3 267/4/3
usemtl quartz_pillar_top
f 268/1/4 267/4/4 271/38/4 272/32/4
usemtl quartz_pillar
f 269/4/5 272/38/5 271/32/5 270/1/5
f 263/4/6 268/38/6 272/32/6 269/1/6
# type: Block of Quartz
o block_00028
g block_00028
f 274/4/1 275/38/1 276/32/1 273/1/1
usemtl quartz_pillar_top
f 274/32/2 273/1/2 278/4/2 277/38/2
usemtl quartz_pillar
f 273/4/3 276/38/3 279/32/3 278/1/3
f 277/1/4 278/4/4 279/38/4 280/32/4
usemtl quartz_pillar_top
f 275/1/5 280/4/5 279/38/5 276/32/5
usemtl quartz_pillar
f 274/1/6 277/4/6 280/38/6 275/32/6
# type: Block of Quartz
o block_00029
g block_00029
f 275/4/1 281/38/1 282/32/1 276/1/1
usemtl quartz_pillar_top
f 275/32/2 276/1/2 279/4/2 280/38/2
usemtl quartz_pillar
f 276/4/3 282/38/3 283/32/3 279/1/3
f 280/1/4 279/4/4 283/38/4 284/32/4
usemtl quartz_pillar_top
f 281/1/5 284/4/5 283/38/5 282/32/5
usemtl quartz_pillar
f 275/1/6 280/4/6 284/38/6 281/32/6
usemtl chiseled_quartz_block
# type: Chiseled Quartz Block
o block_00030
g block_00030
f 281/4/1 285/38/1 286/32/1 282/1/1
usemtl chiseled_quartz_block_top
f 281/32/2 282/1/2 283/4/2 284/38/2
usemtl chiseled_quartz_block
f 282/4/3 286/38/3 287/32/3 283/1/3
f 284/1/4 283/4/4 287/38/4 288/32/4
usemtl chiseled_quartz_block_top
f 285/1/5 288/4/5 287/38/5 286/32/5
usemtl chiseled_quartz_block
f 281/1/6 284/4/6 288/38/6 285/32/6
# type: Chiseled Quartz Block
o block_00031
g block_00031
f 289/4/1 290/38/1 275/32/1 274/1/1
usemtl chiseled_quartz_block_top
f 289/32/2 274/1/2 277/4/2 291/38/2
usemtl chiseled_quartz_block
f 274/4/3 275/38/3 280/32/3 277/1/3
f 291/1/4 277/4/4 280/38/4 292/32/4
usemtl chiseled_quartz_block_top
f 290/1/5 292/4/5 280/38/5 275/32/5
usemtl chiseled_quartz_block
f 289/1/6 291/4/6 292/38/6 290/32/6
# type: Chiseled Quartz Block
o block_00032
g block_00032
f 290/4/1 293/38/1 281/32/1 275/1/1
usemtl chiseled_quartz_block_top
f 290/32/2 275/1/2 280/4/2 292/38/2
usemtl chiseled_quartz_block
f 275/4/3 281/38/3 284/32/3 280/1/3
f 292/1/4 280/4/4 284/38/4 294/32/4
usemtl chiseled_quartz_block_top
f 293/1/5 294/4/5 284/38/5 281/32/5
usemtl chiseled_quartz_block
f 290/1/6 292/4/6 294/38/6 293/32/6
usemtl quartz_pillar_top
# type: Block of Quartz
o block_00033
g block_00033
f 248/4/1 252/38/1 251/32/1 247/1/1
usemtl quartz_pillar
f 248/1/2 247/4/2 296/38/2 295/32/2
f 247/38/3 251/32/3 297/1/3 296/4/3
usemtl quartz_pillar_top
f 295/1/4 296/4/4 297/38/4 298/32/4
usemtl quartz_pillar
f 252/4/5 298/38/5 297/32/5 251/1/5
f 248/4/6 295/38/6 298/32/6 252/1/6
usemtl quartz_block_bottom
# type: Quartz
o block_00034
g block_00034
f 252/4/1 258/38/1 299/32/1 251/1/1
f 252/32/2 251/1/2 297/4/2 298/38/2
f 251/4/3 299/38/3 300/32/3 297/1/3
f 298/1/4 297/4/4 300/38/4 301/32/4
f 258/1/5 301/4/5 300/38/5 299/32/5
f 252/1/6 298/4/6 301/38/6 258/32/6
# type: Quartz
o block_00035
g block_00035
f 266/4/1 267/38/1 248/32/1 245/1/1
f 266/32/2 245/1/2 303/4/2 302/38/2
f 245/4/3 248/38/3 295/32/3 303/1/3
f 302/1/4 303/4/4 295/38/4 304/32/4
f 267/1/5 304/4/5 295/38/5 248/32/5
f 266/1/6 302/4/6 304/38/6 267/32/6
# type: Quartz
o block_00036
g block_00036
f 267/4/1 271/38/1 252/32/1 248/1/1
f 267/32/2 248/1/2 295/4/2 304/38/2
f 248/4/3 252/38/3 298/32/3 295/1/3
f 304/1/4 295/4/4 298/38/4 305/32/4
f 271/1/5 305/4/5 298/38/5 252/32/5
f 267/1/6 304/4/6 305/38/6 271/32/6
# type: Quartz
o block_00037
g block_00037
f 271/4/1 257/38/1 258/32/1 252/1/1
f 271/32/2 252/1/2 298/4/2 305/38/2
f 252/4/3 258/38/3 301/32/3 298/1/3
f 305/1/4 298/4/4 301/38/4 306/32/4
f 257/1/5 306/4/5 301/38/5 258/32/5
f 271/1/6 305/4/6 306/38/6 257/32/6
# type: Quartz
o block_00038
g block_00038
f 257/4/1 260/38/1 259/32/1 258/1/1
f 257/32/2 258/1/2 301/4/2 306/38/2
f 258/4/3 259/38/3 307/32/3 301/1/3
f 306/1/4 301/4/4 307/38/4 308/32/4
f 260/1/5 308/4/5 307/38/5 259/32/5
f 257/1/6 306/4/6 308/38/6 260/32/6
# type: Quartz
o block_00039
g block_00039
f 260/4/1 309/38/1 310/32/1 259/1/1
f 260/32/2 259/1/2 307/4/2 308/38/2
f 259/4/3 310/38/3 311/32/3 307/1/3
f 308/1/4 307/4/4 311/38/4 312/32/4
f 309/1/5 312/4/5 311/38/5 310/32/5
f 260/1/6 308/4/6 312/38/6 309/32/6
usemtl chiseled_quartz_block
# type: Chiseled Quartz Block
o block_00040
g block_00040
f 314/4/1 315/38/1 316/32/1 313/1/1
usemtl chiseled_quartz_block_top
f 314/32/2 313/1/2 318/4/2 317/38/2
usemtl chiseled_quartz_block
f 313/4/3 316/38/3 319/32/3 318/1/3
f 317/1/4 318/4/4 319/38/4 320/32/4
usemtl chiseled_quartz_block_top
f 315/1/5 320/4/5 319/38/5 316/32/5
usemtl chiseled_quartz_block
f 314/1/6 317/4/6 320/38/6 315/32/6
# type: Chiseled Quartz Block
o block_00041
g block_00041
f 315/4/1 321/38/1 322/32/1 316/1/1
usemtl chiseled_quartz_block_top
f 315/32/2 316/1/2 319/4/2 320/38/2
usemtl chiseled_quartz_block
f 316/4/3 322/38/3 323/32/3 319/1/3
f 320/1/4 319/4/4 323/38/4 324/32/4
usemtl chiseled_quartz_block_top
f 321/1/5 324/4/5 323/38/5 322/32/5
usemtl chiseled_quartz_block
f 315/1/6 320/4/6 324/38/6 321/32/6
usemtl quartz_pillar_top
# type: Block of Quartz
o block_00042
g block_00042
f 268/4/1 272/38/1 271/32/1 267/1/1
usemtl quartz_pillar
f 268/1/2 267/4/2 304/38/2 325/32/2
f 267/38/3 271/32/3 305/1/3 304/4/3
usemtl quartz_pillar_top
f 325/1/4 304/4/4 305/38/4 326/32/4
usemtl quartz_pillar
f 272/4/5 326/38/5 305/32/5 271/1/5
f 268/4/6 325/38/6 326/32/6 272/1/6
usemtl quartz_block_bottom
# type: Quartz
o block_00043
g block_00043
f 272/4/1 327/38/1 257/32/1 271/1/1
f 272/32/2 271/1/2 305/4/2 326/38/2
f 271/4/3 257/38/3 306/32/3 305/1/3
f 326/1/4 305/4/4 306/38/4 328/32/4
f 327/1/5 328/4/5 306/38/5 257/32/5
f 272/1/6 326/4/6 328/38/6 327/32/6
usemtl quartz_pillar
# type: Block of Quartz
o block_00044
g block_00044
f 329/4/1 330/38/1 315/32/1 314/1/1
usemtl quartz_pillar_top
f 329/32/2 314/1/2 317/4/2 331/38/2
usemtl quartz_pillar
f 314/4/3 315/38/3 320/32/3 317/1/3
f 331/1/4 317/4/4 320/38/4 332/32/4
usemtl quartz_pillar_top
f 330/1/5 332/4/5 320/38/5 315/32/5
usemtl quartz_pillar
f 329/1/6 331/4/6 332/38/6 330/32/6
# type: Block of Quartz
o block_00045
g block_00045
f 330/4/1 333/38/1 321/32/1 315/1/1
usemtl quartz_pillar_top
f 330/32/2 315/1/2 320/4/2 332/38/2
usemtl quartz_pillar
f 315/4/3 321/38/3 324/32/3 320/1/3
f 332/1/4 320/4/4 324/38/4 334/32/4
usemtl quartz_pillar_top
f 333/1/5 334/4/5 324/38/5 321/32/5
usemtl quartz_pillar
f 330/1/6 332/4/6 334/38/6 333/32/6
usemtl chiseled_quartz_block
# type: Chiseled Quartz Block
o block_00046
g block_00046
f 333/4/1 335/38/1 336/32/1 321/1/1
usemtl chiseled_quartz_block_top
f 333/32/2 321/1/2 324/4/2 334/38/2
usemtl chiseled_quartz_block
f 321/4/3 336/38/3 337/32/3 324/1/3
f 334/1/4 324/4/4 337/38/4 338/32/4
usemtl chiseled_quartz_block_top
f 335/1/5 338/4/5 337/38/5 336/32/5
usemtl chiseled_quartz_block
f 333/1/6 334/4/6 338/38/6 335/32/6
# type: Chiseled Quartz Block
o block_00047
g block_00047
f 277/4/1 280/38/1 279/32/1 278/1/1
usemtl chiseled_quartz_block_top
f 277/32/2 278/1/2 340/4/2 339/38/2
usemtl chiseled_quartz_block
f 278/4/3 279/38/3 341/32/3 340/1/3
f 339/1/4 340/4/4 341/38/4 342/32/4
usemtl chiseled_quartz_block_top
f 280/1/5 342/4/5 341/38/5 279/32/5
usemtl chiseled_quartz_block
f 277/1/6 339/4/6 342/38/6 280/32/6
# type: Chiseled Quartz Block
o block_00048
g block_00048
f 280/4/1 284/38/1 283/32/1 279/1/1
usemtl chiseled_quartz_block_top
f 280/32/2 279/1/2 341/4/2 342/38/2
usemtl chiseled_quartz_block
f 279/4/3 283/38/3 343/32/3 341/1/3
f 342/1/4 341/4/4 343/38/4 344/32/4
usemtl chiseled_quartz_block_top
f 284/1/5 344/4/5 343/38/5 283/32/5
usemtl chiseled_quartz_block
f 280/1/6 342/4/6 344/38/6 284/32/6
usemtl quartz_block_bottom
# type: Quartz
o block_00049
g block_00049
f 291/4/1 292/38/1 280/32/1 277/1/1
f 291/32/2 277/1/2 339/4/2 345/38/2
f 277/4/3 280/38/3 342/32/3 339/1/3
f 345/1/4 339/4/4 342/38/4 346/32/4
f 292/1/5 346/4/5 342/38/5 280/32/5
f 291/1/6 345/4/6 346/38/6 292/32/6
# type: Quartz
o block_00050
g block_00050
f 292/4/1 294/38/1 284/32/1 280/1/1
f 292/32/2 280/1/2 342/4/2 346/38/2
f 280/4/3 284/38/3 344/32/3 342/1/3
f 346/1/4 342/4/4 344/38/4 347/32/4
f 294/1/5 347/4/5 344/38/5 284/32/5
f 292/1/6 346/4/6 347/38/6 294/32/6
# type: Quartz
o block_00051
g block_00051
f 294/4/1 348/38/1 288/32/1 284/1/1
f 294/32/2 284/1/2 344/4/2 347/38/2
f 284/4/3 288/38/3 349/32/3 344/1/3
f 347/1/4 344/4/4 349/38/4 350/32/4
f 348/1/5 350/4/5 349/38/5 288/32/5
f 294/1/6 347/4/6 350/38/6 348/32/6
# type: Quartz
o block_00052
g block_00052
f 295/4/1 298/38/1 297/32/1 296/1/1
f 295/32/2 296/1/2 352/4/2 351/38/2
f 296/4/3 297/38/3 353/32/3 352/1/3
f 351/1/4 352/4/4 353/38/4 354/32/4
f 298/1/5 354/4/5 353/38/5 297/32/5
f 295/1/6 351/4/6 354/38/6 298/32/6
# type: Quartz
o block_00053
g block_00053
f 298/4/1 301/38/1 300/32/1 297/1/1
f 298/32/2 297/1/2 353/4/2 354/38/2
f 297/4/3 300/38/3 355/32/3 353/1/3
f 354/1/4 353/4/4 355/38/4 356/32/4
f 301/1/5 356/4/5 355/38/5 300/32/5
f 298/1/6 354/4/6 356/38/6 301/32/6
# type: Quartz
o block_00054
g block_00054
f 318/4/1 319/38/1 292/32/1 291/1/1
f 318/32/2 291/1/2 345/4/2 357/38/2
f 291/4/3 292/38/3 346/32/3 345/1/3
f 357/1/4 345/4/4 346/38/4 358/32/4
f 319/1/5 358/4/5 346/38/5 292/32/5
f 318/1/6 357/4/6 358/38/6 319/32/6
# type: Quartz
o block_00055
g block_00055
f 319/4/1 323/38/1 294/32/1 292/1/1
f 319/32/2 292/1/2 346/4/2 358/38/2
f 292/4/3 294/38/3 347/32/3 346/1/3
f 358/1/4 346/4/4 347/38/4 359/32/4
f 323/1/5 359/4/5 347/38/5 294/32/5
f 319/1/6 358/4/6 359/38/6 323/32/6
# type: Quartz
o block_00056
g block_00056
f 323/4/1 360/38/1 348/32/1 294/1/1
f 323/32/2 294/1/2 347/4/2 359/38/2
f 294/4/3 348/38/3 350/32/3 347/1/3
f 359/1/4 347/4/4 350/38/4 361/32/4
f 360/1/5 361/4/5 350/38/5 348/32/5
f 323/1/6 359/4/6 361/38/6 360/32/6
# type: Quartz
o block_00057
g block_00057
f 363/4/1 364/38/1 365/32/1 362/1/1
f 363/32/2 362/1/2 367/4/2 366/38/2
f 362/4/3 365/38/3 368/32/3 367/1/3
f 366/1/4 367/4/4 368/38/4 369/32/4
f 364/1/5 369/4/5 368/38/5 365/32/5
f 363/1/6 366/4/6 369/38/6 364/32/6
# type: Quartz
o block_00058
g block_00058
f 364/4/1 302/38/1 303/32/1 365/1/1
f 364/32/2 365/1/2 368/4/2 369/38/2
f 365/4/3 303/38/3 370/32/3 368/1/3
f 369/1/4 368/4/4 370/38/4 371/32/4
f 302/1/5 371/4/5 370/38/5 303/32/5
f 364/1/6 369/4/6 371/38/6 302/32/6
# type: Quartz
o block_00059
g block_00059
f 302/4/1 304/38/1 295/32/1 303/1/1
f 302/32/2 303/1/2 370/4/2 371/38/2
f 303/4/3 295/38/3 351/32/3 370/1/3
f 371/1/4 370/4/4 351/38/4 372/32/4
f 304/1/5 372/4/5 351/38/5 295/32/5
f 302/1/6 371/4/6 372/38/6 304/32/6
# type: Quartz
o block_00060
g block_00060
f 304/4/1 305/38/1 298/32/1 295/1/1
f 304/32/2 295/1/2 351/4/2 372/38/2
f 295/4/3 298/38/3 354/32/3 351/1/3
f 372/1/4 351/4/4 354/38/4 373/32/4
f 305/1/5 373/4/5 354/38/5 298/32/5
f 304/1/6 372/4/6 373/38/6 305/32/6
# type: Quartz
o block_00061
g block_00061
f 305/4/1 306/38/1 301/32/1 298/1/1
f 305/32/2 298/1/2 354/4/2 373/38/2
f 298/4/3 301/38/3 356/32/3 354/1/3
f 373/1/4 354/4/4 356/38/4 374/32/4
f 306/1/5 374/4/5 356/38/5 301/32/5
f 305/1/6 373/4/6 374/38/6 306/32/6
# type: Quartz
o block_00062
g block_00062
f 306/4/1 308/38/1 307/32/1 301/1/1
f 306/32/2 301/1/2 356/4/2 374/38/2
f 301/4/3 307/38/3 375/32/3 356/1/3
f 374/1/4 356/4/4 375/38/4 376/32/4
f 308/1/5 376/4/5 375/38/5 307/32/5
f 306/1/6 374/4/6 376/38/6 308/32/6
# type: Quartz
o block_00063
g block_00063
f 317/4/1 320/38/1 319/32/1 318/1/1
f 317/32/2 318/1/2 357/4/2 377/38/2
f 318/4/3 319/38/3 358/32/3 357/1/3
f 377/1/4 357/4/4 358/38/4 378/32/4
f 320/1/5 378/4/5 358/38/5 319/32/5
f 317/1/6 377/4/6 378/38/6 320/32/6
# type: Quartz
o block_00064
g block_00064
f 320/4/1 324/38/1 323/32/1 319/1/1
f 320/32/2 319/1/2 358/4/2 378/38/2
f 319/4/3 323/38/3 359/32/3 358/1/3
f 378/1/4 358/4/4 359/38/4 379/32/4
f 324/1/5 379/4/5 359/38/5 323/32/5
f 320/1/6 378/4/6 379/38/6 324/32/6
# type: Quartz
o block_00065
g block_00065
f 324/4/1 337/38/1 360/32/1 323/1/1
f 324/32/2 323/1/2 359/4/2 379/38/2
f 323/4/3 360/38/3 361/32/3 359/1/3
f 379/1/4 359/4/4 361/38/4 380/32/4
f 337/1/5 380/4/5 361/38/5 360/32/5
f 324/1/6 379/4/6 380/38/6 337/32/6
# type: Quartz
o block_00066
g block_00066
f 325/4/1 326/38/1 305/32/1 304/1/1
f 325/32/2 304/1/2 372/4/2 381/38/2
f 304/4/3 305/38/3 373/32/3 372/1/3
f 381/1/4 372/4/4 373/38/4 382/32/4
f 326/1/5 382/4/5 373/38/5 305/32/5
f 325/1/6 381/4/6 382/38/6 326/32/6
# type: Quartz
o block_00067
g block_00067
f 326/4/1 328/38/1 306/32/1 305/1/1
f 326/32/2 305/1/2 373/4/2 382/38/2
f 305/4/3 306/38/3 374/32/3 373/1/3
f 382/1/4 373/4/4 374/38/4 383/32/4
f 328/1/5 383/4/5 374/38/5 306/32/5
f 326/1/6 382/4/6 383/38/6 328/32/6
usemtl chiseled_quartz_block
# type: Chiseled Quartz Block
o block_00068
g block_00068
f 331/4/1 332/38/1 320/32/1 317/1/1
usemtl chiseled_quartz_block_top
f 331/32/2 317/1/2 377/4/2 384/38/2
usemtl chiseled_quartz_block
f 317/4/3 320/38/3 378/32/3 377/1/3
f 384/1/4 377/4/4 378/38/4 385/32/4
usemtl chiseled_quartz_block_top
f 332/1/5 385/4/5 378/38/5 320/32/5
usemtl chiseled_quartz_block
f 331/1/6 384/4/6 385/38/6 332/32/6
# type: Chiseled Quartz Block
o block_00069
g block_00069
f 332/4/1 334/38/1 324/32/1 320/1/1
usemtl chiseled_quartz_block_top
f 332/32/2 320/1/2 378/4/2 385/38/2
usemtl chiseled_quartz_block
f 320/4/3 324/38/3 379/32/3 378/1/3
f 385/1/4 378/4/4 379/38/4 386/32/4
usemtl chiseled_quartz_block_top
f 334/1/5 386/4/5 379/38/5 324/32/5
usemtl chiseled_quartz_block
f 332/1/6 385/4/6 386/38/6 334/32/6
usemtl quartz_block_bottom
# type: Quartz
o block_00070
g block_00070
f 345/4/1 346/38/1 342/32/1 339/1/1
f 345/32/2 339/1/2 388/4/2 387/38/2
f 339/4/3 342/38/3 389/32/3 388/1/3
f 387/1/4 388/4/4 389/38/4 390/32/4
f 346/1/5 390/4/5 389/38/5 342/32/5
f 345/1/6 387/4/6 390/38/6 346/32/6
# type: Quartz
o block_00071
g block_00071
f 346/4/1 347/38/1 344/32/1 342/1/1
f 346/32/2 342/1/2 389/4/2 390/38/2
f 342/4/3 344/38/3 391/32/3 389/1/3
f 390/1/4 389/4/4 391/38/4 392/32/4
f 347/1/5 392/4/5 391/38/5 344/32/5
f 346/1/6 390/4/6 392/38/6 347/32/6
# type: Quartz
o block_00072
g block_00072
f 347/4/1 350/38/1 349/32/1 344/1/1
f 347/32/2 344/1/2 391/4/2 392/38/2
f 344/4/3 349/38/3 393/32/3 391/1/3
f 392/1/4 391/4/4 393/38/4 394/32/4
f 350/1/5 394/4/5 393/38/5 349/32/5
f 347/1/6 392/4/6 394/38/6 350/32/6
# type: Quartz
o block_00073
g block_00073
f 396/4/1 367/38/1 397/32/1 395/1/1
f 396/32/2 395/1/2 399/4/2 398/38/2
f 395/4/3 397/38/3 400/32/3 399/1/3
f 398/1/4 399/4/4 400/38/4 401/32/4
f 367/1/5 401/4/5 400/38/5 397/32/5
f 396/1/6 398/4/6 401/38/6 367/32/6
# type: Quartz
o block_00074
g block_00074
f 367/4/1 368/38/1 402/32/1 397/1/1
f 367/32/2 397/1/2 400/4/2 401/38/2
f 397/4/3 402/38/3 403/32/3 400/1/3
f 401/1/4 400/4/4 403/38/4 404/32/4
f 368/1/5 404/4/5 403/38/5 402/32/5
f 367/1/6 401/4/6 404/38/6 368/32/6
# type: Quartz
o block_00075
g block_00075
f 357/4/1 358/38/1 346/32/1 345/1/1
f 357/32/2 345/1/2 387/4/2 405/38/2
f 345/4/3 346/38/3 390/32/3 387/1/3
f 405/1/4 387/4/4 390/38/4 406/32/4
f 358/1/5 406/4/5 390/38/5 346/32/5
f 357/1/6 405/4/6 406/38/6 358/32/6
# type: Quartz
o block_00076
g block_00076
f 358/4/1 359/38/1 347/32/1 346/1/1
f 358/32/2 346/1/2 390/4/2 406/38/2
f 346/4/3 347/38/3 392/32/3 390/1/3
f 406/1/4 390/4/4 392/38/4 407/32/4
f 359/1/5 407/4/5 392/38/5 347/32/5
f 358/1/6 406/4/6 407/38/6 359/32/6
# type: Quartz
o block_00077
g block_00077
f 359/4/1 361/38/1 350/32/1 347/1/1
f 359/32/2 347/1/2 392/4/2 407/38/2
f 347/4/3 350/38/3 394/32/3 392/1/3
f 407/1/4 392/4/4 394/38/4 408/32/4
f 361/1/5 408/4/5 394/38/5 350/32/5
f 359/1/6 407/4/6 408/38/6 361/32/6
# type: Quartz
o block_00078
g block_00078
f 409/4/1 366/38/1 367/32/1 396/1/1
f 409/32/2 396/1/2 398/4/2 410/38/2
f 396/4/3 367/38/3 401/32/3 398/1/3
f 410/1/4 398/4/4 401/38/4 411/32/4
f 366/1/5 411/4/5 401/38/5 367/32/5
f 409/1/6 410/4/6 411/38/6 366/32/6
# type: Quartz
o block_00079
g block_00079
f 366/4/1 369/38/1 368/32/1 367/1/1
f 366/32/2 367/1/2 401/4/2 411/38/2
f 367/4/3 368/38/3 404/32/3 401/1/3
f 411/1/4 401/4/4 404/38/4 412/32/4
f 369/1/5 412/4/5 404/38/5 368/32/5
f 366/1/6 411/4/6 412/38/6 369/32/6
# type: Quartz
o block_00080
g block_00080
f 369/4/1 371/38/1 370/32/1 368/1/1
f 369/32/2 368/1/2 404/4/2 412/38/2
f 368/4/3 370/38/3 413/32/3 404/1/3
f 412/1/4 404/4/4 413/38/4 414/32/4
f 371/1/5 414/4/5 413/38/5 370/32/5
f 369/1/6 412/4/6 414/38/6 371/32/6
# type: Quartz
o block_00081
g block_00081
f 371/4/1 372/38/1 351/32/1 370/1/1
f 371/32/2 370/1/2 413/4/2 414/38/2
f 370/4/3 351/38/3 415/32/3 413/1/3
f 414/1/4 413/4/4 415/38/4 416/32/4
f 372/1/5 416/4/5 415/38/5 351/32/5
f 371/1/6 414/4/6 416/38/6 372/32/6
# type: Quartz
o block_00082
g block_00082
f 372/4/1 373/38/1 354/32/1 351/1/1
f 372/32/2 351/1/2 415/4/2 416/38/2
f 351/4/3 354/38/3 417/32/3 415/1/3
f 416/1/4 415/4/4 417/38/4 418/32/4
f 373/1/5 418/4/5 417/38/5 354/32/5
f 372/1/6 416/4/6 418/38/6 373/32/6
# type: Quartz
o block_00083
g block_00083
f 377/4/1 378/38/1 358/32/1 357/1/1
f 377/32/2 357/1/2 405/4/2 419/38/2
f 357/4/3 358/38/3 406/32/3 405/1/3
f 419/1/4 405/4/4 406/38/4 420/32/4
f 378/1/5 420/4/5 406/38/5 358/32/5
f 377/1/6 419/4/6 420/38/6 378/32/6
# type: Quartz
o block_00084
g block_00084
f 378/4/1 379/38/1 359/32/1 358/1/1
f 378/32/2 358/1/2 406/4/2 420/38/2
f 358/4/3 359/38/3 407/32/3 406/1/3
f 420/1/4 406/4/4 407/38/4 421/32/4
f 379/1/5 421/4/5 407/38/5 359/32/5
f 378/1/6 420/4/6 421/38/6 379/32/6
# type: Quartz
o block_00085
g block_00085
f 379/4/1 380/38/1 361/32/1 359/1/1
f 379/32/2 359/1/2 407/4/2 421/38/2
f 359/4/3 361/38/3 408/32/3 407/1/3
f 421/1/4 407/4/4 408/38/4 422/32/4
f 380/1/5 422/4/5 408/38/5 361/32/5
f 379/1/6 421/4/6 422/38/6 380/32/6
# type: Quartz
o block_00086
g block_00086
f 423/4/1 424/38/1 366/32/1 409/1/1
f 423/32/2 409/1/2 410/4/2 425/38/2
f 409/4/3 366/38/3 411/32/3 410/1/3
f 425/1/4 410/4/4 411/38/4 426/32/4
f 424/1/5 426/4/5 411/38/5 366/32/5
f 423/1/6 425/4/6 426/38/6 424/32/6
# type: Quartz
o block_00087
g block_00087
f 424/4/1 427/38/1 369/32/1 366/1/1
f 424/32/2 366/1/2 411/4/2 426/38/2
f 366/4/3 369/38/3 412/32/3 411/1/3
f 426/1/4 411/4/4 412/38/4 428/32/4
f 427/1/5 428/4/5 412/38/5 369/32/5
f 424/1/6 426/4/6 428/38/6 427/32/6
usemtl chiseled_quartz_block
# type: Chiseled Quartz Block
o block_00088
g block_00088
f 388/4/1 389/38/1 430/32/1 429/1/1
usemtl chiseled_quartz_block_top
f 388/32/2 429/1/2 432/4/2 431/38/2
usemtl chiseled_quartz_block
f 429/4/3 430/38/3 433/32/3 432/1/3
f 431/1/4 432/4/4 433/38/4 434/32/4
usemtl chiseled_quartz_block_top
f 389/1/5 434/4/5 433/38/5 430/32/5
usemtl chiseled_quartz_block
f 388/1/6 431/4/6 434/38/6 389/32/6
# type: Chiseled Quartz Block
o block_00089
g block_00089
f 389/4/1 391/38/1 435/32/1 430/1/1
usemtl chiseled_quartz_block_top
f 389/32/2 430/1/2 433/4/2 434/38/2
usemtl chiseled_quartz_block
f 430/4/3 435/38/3 436/32/3 433/1/3
f 434/1/4 433/4/4 436/38/4 437/32/4
usemtl chiseled_quartz_block_top
f 391/1/5 437/4/5 436/38/5 435/32/5
usemtl chiseled_quartz_block
f 389/1/6 434/4/6 437/38/6 391/32/6
usemtl quartz_block_bottom
# type: Quartz
o block_00090
g block_00090
f 387/4/1 390/38/1 389/32/1 388/1/1
f 387/32/2 388/1/2 431/4/2 438/38/2
f 388/4/3 389/38/3 434/32/3 431/1/3
f 438/1/4 431/4/4 434/38/4 439/32/4
f 390/1/5 439/4/5 434/38/5 389/32/5
f 387/1/6 438/4/6 439/38/6 390/32/6
# type: Quartz
o block_00091
g block_00091
f 390/4/1 392/38/1 391/32/1 389/1/1
f 390/32/2 389/1/2 434/4/2 439/38/2
f 389/4/3 391/38/3 437/32/3 434/1/3
f 439/1/4 434/4/4 437/38/4 440/32/4
f 392/1/5 440/4/5 437/38/5 391/32/5
f 390/1/6 439/4/6 440/38/6 392/32/6
# type: Quartz
o block_00092
g block_00092
f 392/4/1 394/38/1 393/32/1 391/1/1
f 392/32/2 391/1/2 437/4/2 440/38/2
f 391/4/3 393/38/3 441/32/3 437/1/3
f 440/1/4 437/4/4 441/38/4 442/32/4
f 394/1/5 442/4/5 441/38/5 393/32/5
f 392/1/6 440/4/6 442/38/6 394/32/6
usemtl purpur_block
# type: Purpur Block
o block_00093
g block_00093
f 394/4/1 443/38/1 444/32/1 393/1/1
f 394/32/2 393/1/2 441/4/2 442/38/2
f 393/4/3 444/38/3 445/32/3 441/1/3
f 442/1/4 441/4/4 445/38/4 446/32/4
f 443/1/5 446/4/5 445/38/5 444/32/5
f 394/1/6 442/4/6 446/38/6 443/32/6
usemtl quartz_pillar
# type: Block of Quartz
o block_00094
g block_00094
f 443/4/1 398/38/1 399/32/1 444/1/1
usemtl quartz_pillar_top
f 443/32/2 444/1/2 445/4/2 446/38/2
usemtl quartz_pillar
f 444/4/3 399/38/3 447/32/3 445/1/3
f 446/1/4 445/4/4 447/38/4 448/32/4
usemtl quartz_pillar_top
f 398/1/5 448/4/5 447/38/5 399/32/5
usemtl quartz_pillar
f 443/1/6 446/4/6 448/38/6 398/32/6
# type: Block of Quartz
o block_00095
g block_00095
f 398/4/1 401/38/1 400/32/1 399/1/1
usemtl quartz_pillar_top
f 398/32/2 399/1/2 447/4/2 448/38/2
usemtl quartz_pillar
f 399/4/3 400/38/3 449/32/3 447/1/3
f 448/1/4 447/4/4 449/38/4 450/32/4
usemtl quartz_pillar_top
f 401/1/5 450/4/5 449/38/5 400/32/5
usemtl quartz_pillar
f 398/1/6 448/4/6 450/38/6 401/32/6
usemtl quartz_block_bottom
# type: Quartz
o block_00096
g block_00096
f 401/4/1 404/38/1 403/32/1 400/1/1
f 401/32/2 400/1/2 449/4/2 450/38/2
f 400/4/3 403/38/3 451/32/3 449/1/3
f 450/1/4 449/4/4 451/38/4 452/32/4
f 404/1/5 452/4/5 451/38/5 403/32/5
f 401/1/6 450/4/6 452/38/6 404/32/6
# type: Quartz
o block_00097
g block_00097
f 405/4/1 406/38/1 390/32/1 387/1/1
f 405/32/2 387/1/2 438/4/2 453/38/2
f 387/4/3 390/38/3 439/32/3 438/1/3
f 453/1/4 438/4/4 439/38/4 454/32/4
f 406/1/5 454/4/5 439/38/5 390/32/5
f 405/1/6 453/4/6 454/38/6 406/32/6
# type: Quartz
o block_00098
g block_00098
f 406/4/1 407/38/1 392/32/1 390/1/1
f 406/32/2 390/1/2 439/4/2 454/38/2
f 390/4/3 392/38/3 440/32/3 439/1/3
f 454/1/4 439/4/4 440/38/4 455/32/4
f 407/1/5 455/4/5 440/38/5 392/32/5
f 406/1/6 454/4/6 455/38/6 407/32/6
# type: Quartz
o block_00099
g block_00099
f 407/4/1 408/38/1 394/32/1 392/1/1
f 407/32/2 392/1/2 440/4/2 455/38/2
f 392/4/3 394/38/3 442/32/3 440/1/3
f 455/1/4 440/4/4 442/38/4 456/32/4
f 408/1/5 456/4/5 442/38/5 394/32/5
f 407/1/6 455/4/6 456/38/6 408/32/6
# type: Quartz
o block_00100
g block_00100
f 410/4/1 411/38/1 401/32/1 398/1/1
f 410/32/2 398/1/2 448/4/2 457/38/2
f 398/4/3 401/38/3 450/32/3 448/1/3
f 457/1/4 448/4/4 450/38/4 458/32/4
f 411/1/5 458/4/5 450/38/5 401/32/5
f 410/1/6 457/4/6 458/38/6 411/32/6
# type: Quartz
o block_00101
g block_00101
f 411/4/1 412/38/1 404/32/1 401/1/1
f 411/32/2 401/1/2 450/4/2 458/38/2
f 401/4/3 404/38/3 452/32/3 450/1/3
f 458/1/4 450/4/4 452/38/4 459/32/4
f 412/1/5 459/4/5 452/38/5 404/32/5
f 411/1/6 458/4/6 459/38/6 412/32/6
# type: Quartz
o block_00102
g block_00102
f 412/4/1 414/38/1 413/32/1 404/1/1
f 412/32/2 404/1/2 452/4/2 459/38/2
f 404/4/3 413/38/3 460/32/3 452/1/3
f 459/1/4 452/4/4 460/38/4 461/32/4
f 414/1/5 461/4/5 460/38/5 413/32/5
f 412/1/6 459/4/6 461/38/6 414/32/6
# type: Quartz
o block_00103
g block_00103
f 414/4/1 416/38/1 415/32/1 413/1/1
f 414/32/2 413/1/2 460/4/2 461/38/2
f 413/4/3 415/38/3 462/32/3 460/1/3
f 461/1/4 460/4/4 462/38/4 463/32/4
f 416/1/5 463/4/5 462/38/5 415/32/5
f 414/1/6 461/4/6 463/38/6 416/32/6
# type: Quartz
o block_00104
g block_00104
f 419/4/1 420/38/1 406/32/1 405/1/1
f 419/32/2 405/1/2 453/4/2 464/38/2
f 405/4/3 406/38/3 454/32/3 453/1/3
f 464/1/4 453/4/4 454/38/4 465/32/4
f 420/1/5 465/4/5 454/38/5 406/32/5
f 419/1/6 464/4/6 465/38/6 420/32/6
# type: Quartz
o block_00105
g block_00105
f 420/4/1 421/38/1 407/32/1 406/1/1
f 420/32/2 406/1/2 454/4/2 465/38/2
f 406/4/3 407/38/3 455/32/3 454/1/3
f 465/1/4 454/4/4 455/38/4 466/32/4
f 421/1/5 466/4/5 455/38/5 407/32/5
f 420/1/6 465/4/6 466/38/6 421/32/6
# type: Quartz
o block_00106
g block_00106
f 421/4/1 422/38/1 408/32/1 407/1/1
f 421/32/2 407/1/2 455/4/2 466/38/2
f 407/4/3 408/38/3 456/32/3 455/1/3
f 466/1/4 455/4/4 456/38/4 467/32/4
f 422/1/5 467/4/5 456/38/5 408/32/5
f 421/1/6 466/4/6 467/38/6 422/32/6
usemtl purpur_block
# type: Purpur Block
o block_00107
g block_00107
f 422/4/1 468/38/1 469/32/1 408/1/1
f 422/32/2 408/1/2 456/4/2 467/38/2
f 408/4/3 469/38/3 470/32/3 456/1/3
f 467/1/4 456/4/4 470/38/4 471/32/4
f 468/1/5 471/4/5 470/38/5 469/32/5
f 422/1/6 467/4/6 471/38/6 468/32/6
usemtl quartz_pillar
# type: Block of Quartz
o block_00108
g block_00108
f 468/4/1 425/38/1 410/32/1 469/1/1
usemtl quartz_pillar_top
f 468/32/2 469/1/2 470/4/2 471/38/2
usemtl quartz_pillar
f 469/4/3 410/38/3 457/32/3 470/1/3
f 471/1/4 470/4/4 457/38/4 472/32/4
usemtl quartz_pillar_top
f 425/1/5 472/4/5 457/38/5 410/32/5
usemtl quartz_pillar
f 468/1/6 471/4/6 472/38/6 425/32/6
# type: Block of Quartz
o block_00109
g block_00109
f 425/4/1 426/38/1 411/32/1 410/1/1
usemtl quartz_pillar_top
f 425/32/2 410/1/2 457/4/2 472/38/2
usemtl quartz_pillar
f 410/4/3 411/38/3 458/32/3 457/1/3
f 472/1/4 457/4/4 458/38/4 473/32/4
usemtl quartz_pillar_top
f 426/1/5 473/4/5 458/38/5 411/32/5
usemtl quartz_pillar
f 425/1/6 472/4/6 473/38/6 426/32/6
usemtl quartz_block_bottom
# type: Quartz
o block_00110
g block_00110
f 426/4/1 428/38/1 412/32/1 411/1/1
f 426/32/2 411/1/2 458/4/2 473/38/2
f 411/4/3 412/38/3 459/32/3 458/1/3
f 473/1/4 458/4/4 459/38/4 474/32/4
f 428/1/5 474/4/5 459/38/5 412/32/5
f 426/1/6 473/4/6 474/38/6 428/32/6
usemtl chiseled_quartz_block
# type: Chiseled Quartz Block
o block_00111
g block_00111
f 475/4/1 476/38/1 420/32/1 419/1/1
usemtl chiseled_quartz_block_top
f 475/32/2 419/1/2 464/4/2 477/38/2
usemtl chiseled_quartz_block
f 419/4/3 420/38/3 465/32/3 464/1/3
f 477/1/4 464/4/4 465/38/4 478/32/4
usemtl chiseled_quartz_block_top
f 476/1/5 478/4/5 465/38/5 420/32/5
usemtl chiseled_quartz_block
f 475/1/6 477/4/6 478/38/6 476/32/6
# type: Chiseled Quartz Block
o block_00112
g block_00112
f 476/4/1 479/38/1 421/32/1 420/1/1
usemtl chiseled_quartz_block_top
f 476/32/2 420/1/2 465/4/2 478/38/2
usemtl chiseled_quartz_block
f 420/4/3 421/38/3 466/32/3 465/1/3
f 478/1/4 465/4/4 466/38/4 480/32/4
usemtl chiseled_quartz_block_top
f 479/1/5 480/4/5 466/38/5 421/32/5
usemtl chiseled_quartz_block
f 476/1/6 478/4/6 480/38/6 479/32/6
usemtl quartz_pillar
# type: Block of Quartz
o block_00113
g block_00113
f 431/4/1 434/38/1 433/32/1 432/1/1
usemtl quartz_pillar_top
f 431/32/2 432/1/2 482/4/2 481/38/2
usemtl quartz_pillar
f 432/4/3 433/38/3 483/32/3 482/1/3
f 481/1/4 482/4/4 483/38/4 484/32/4
usemtl quartz_pillar_top
f 434/1/5 484/4/5 483/38/5 433/32/5
usemtl quartz_pillar
f 431/1/6 481/4/6 484/38/6 434/32/6
# type: Block of Quartz
o block_00114
g block_00114
f 434/4/1 437/38/1 436/32/1 433/1/1
usemtl quartz_pillar_top
f 434/32/2 433/1/2 483/4/2 484/38/2
usemtl quartz_pillar
f 433/4/3 436/38/3 485/32/3 483/1/3
f 484/1/4 483/4/4 485/38/4 486/32/4
usemtl quartz_pillar_top
f 437/1/5 486/4/5 485/38/5 436/32/5
usemtl quartz_pillar
f 434/1/6 484/4/6 486/38/6 437/32/6
usemtl chiseled_quartz_block
# type: Chiseled Quartz Block
o block_00115
g block_00115
f 437/4/1 441/38/1 487/32/1 436/1/1
usemtl chiseled_quartz_block_top
f 437/32/2 436/1/2 485/4/2 486/38/2
usemtl chiseled_quartz_block
f 436/4/3 487/38/3 488/32/3 485/1/3
f 486/1/4 485/4/4 488/38/4 489/32/4
usemtl chiseled_quartz_block_top
f 441/1/5 489/4/5 488/38/5 487/32/5
usemtl chiseled_quartz_block
f 437/1/6 486/4/6 489/38/6 441/32/6
# type: Chiseled Quartz Block
o block_00116
g block_00116
f 438/4/1 439/38/1 434/32/1 431/1/1
usemtl chiseled_quartz_block_top
f 438/32/2 431/1/2 481/4/2 490/38/2
usemtl chiseled_quartz_block
f 431/4/3 434/38/3 484/32/3 481/1/3
f 490/1/4 481/4/4 484/38/4 491/32/4
usemtl chiseled_quartz_block_top
f 439/1/5 491/4/5 484/38/5 434/32/5
usemtl chiseled_quartz_block
f 438/1/6 490/4/6 491/38/6 439/32/6
# type: Chiseled Quartz Block
o block_00117
g block_00117
f 439/4/1 440/38/1 437/32/1 434/1/1
usemtl chiseled_quartz_block_top
f 439/32/2 434/1/2 484/4/2 491/38/2
usemtl chiseled_quartz_block
f 434/4/3 437/38/3 486/32/3 484/1/3
f 491/1/4 484/4/4 486/38/4 492/32/4
usemtl chiseled_quartz_block_top
f 440/1/5 492/4/5 486/38/5 437/32/5
usemtl chiseled_quartz_block
f 439/1/6 491/4/6 492/38/6 440/32/6
usemtl purpur_block
# type: Purpur Block
o block_00118
g block_00118
f 459/4/1 461/38/1 460/32/1 452/1/1
f 459/32/2 452/1/2 494/4/2 493/38/2
f 452/4/3 460/38/3 495/32/3 494/1/3
f 493/1/4 494/4/4 495/38/4 496/32/4
f 461/1/5 496/4/5 495/38/5 460/32/5
f 459/1/6 493/4/6 496/38/6 461/32/6
usemtl chiseled_quartz_block
# type: Chiseled Quartz Block
o block_00119
g block_00119
f 464/4/1 465/38/1 454/32/1 453/1/1
usemtl chiseled_quartz_block_top
f 464/32/2 453/1/2 498/4/2 497/38/2
usemtl chiseled_quartz_block
f 453/4/3 454/38/3 499/32/3 498/1/3
f 497/1/4 498/4/4 499/38/4 500/32/4
usemtl chiseled_quartz_block_top
f 465/1/5 500/4/5 499/38/5 454/32/5
usemtl chiseled_quartz_block
f 464/1/6 497/4/6 500/38/6 465/32/6
# type: Chiseled Quartz Block
o block_00120
g block_00120
f 465/4/1 466/38/1 455/32/1 454/1/1
usemtl chiseled_quartz_block_top
f 465/32/2 454/1/2 499/4/2 500/38/2
usemtl chiseled_quartz_block
f 454/4/3 455/38/3 501/32/3 499/1/3
f 500/1/4 499/4/4 501/38/4 502/32/4
usemtl chiseled_quartz_block_top
f 466/1/5 502/4/5 501/38/5 455/32/5
usemtl chiseled_quartz_block
f 465/1/6 500/4/6 502/38/6 466/32/6
usemtl quartz_pillar
# type: Block of Quartz
o block_00121
g block_00121
f 477/4/1 478/38/1 465/32/1 464/1/1
usemtl quartz_pillar_top
f 477/32/2 464/1/2 497/4/2 503/38/2
usemtl quartz_pillar
f 464/4/3 465/38/3 500/32/3 497/1/3
f 503/1/4 497/4/4 500/38/4 504/32/4
usemtl quartz_pillar_top
f 478/1/5 504/4/5 500/38/5 465/32/5
usemtl quartz_pillar
f 477/1/6 503/4/6 504/38/6 478/32/6
# type: Block of Quartz
o block_00122
g block_00122
f 478/4/1 480/38/1 466/32/1 465/1/1
usemtl quartz_pillar_top
f 478/32/2 465/1/2 500/4/2 504/38/2
usemtl quartz_pillar
f 465/4/3 466/38/3 502/32/3 500/1/3
f 504/1/4 500/4/4 502/38/4 505/32/4
usemtl quartz_pillar_top
f 480/1/5 505/4/5 502/38/5 466/32/5
usemtl quartz_pillar
f 478/1/6 504/4/6 505/38/6 480/32/6
usemtl chiseled_quartz_block
# type: Chiseled Quartz Block
o block_00123
g block_00123
f 480/4/1 506/38/1 467/32/1 466/1/1
usemtl chiseled_quartz_block_top
f 480/32/2 466/1/2 502/4/2 505/38/2
usemtl chiseled_quartz_block
f 466/4/3 467/38/3 507/32/3 502/1/3
f 505/1/4 502/4/4 507/38/4 508/32/4
usemtl chiseled_quartz_block_top
f 506/1/5 508/4/5 507/38/5 467/32/5
usemtl chiseled_quartz_block
f 480/1/6 505/4/6 508/38/6 506/32/6
usemtl purpur_block
# type: Purpur Block
o block_00124
g block_00124
f 510/4/1 493/38/1 494/32/1 509/1/1
f 510/32/2 509/1/2 512/4/2 511/38/2
f 509/4/3 494/38/3 513/32/3 512/1/3
f 511/1/4 512/4/4 513/38/4 514/32/4
f 493/1/5 514/4/5 513/38/5 494/32/5
f 510/1/6 511/4/6 514/38/6 493/32/6
